<mxfile host="app.diagrams.net" modified="2024-05-28T07:45:46.369Z" agent="Mozilla/5.0 (Windows NT 10.0; Win64; x64) AppleWebKit/537.36 (KHTML, like Gecko) Chrome/125.0.0.0 Safari/537.36" version="24.3.1" etag="8M2de5ouru2xreQEdvMB" type="github">
  <diagram name="第 1 页" id="ynSyun7Jrig-16OEIuBR">
    <mxGraphModel>
      <root>
        <mxCell id="0" />
        <mxCell id="1" parent="0" />
      </root>
    </mxGraphModel>
  </diagram>
</mxfile>
